<mxfile host="app.diagrams.net" modified="2023-12-19T10:26:20.376Z" agent="Mozilla/5.0 (Macintosh; Intel Mac OS X 10_15_7) AppleWebKit/537.36 (KHTML, like Gecko) Chrome/120.0.0.0 Safari/537.36" version="22.1.11" etag="b4Dxtv_eCdH07SMz3Sfw" type="github">
  <diagram name="Page-1" id="d_SJzd4MUy0mLZ05Ouq9">
    <mxGraphModel>
      <root>
        <mxCell id="0" />
        <mxCell id="1" parent="0" />
      </root>
    </mxGraphModel>
  </diagram>
</mxfile>
